# xmcd
# 
# Track frame offsets:
#     150
#     18787
#     31857
#     46717
#     68100
#     87315
#     105822
#     119997
#     138292
#     154702
#     170587
#     181997
#     197692
#     215402
#     231052
#     249815
#     269867
#     281047
#     292852
#     305882
# 
# Disc length: 4301
# 
# Revision: 7
# Processed by: cddbd v1.5.2PL0 Copyright (c) Steve Scherf et al.
# Submitted via: BonkEnc v1.0.8
# 
DISCID=1810cb14
DTITLE=Jovem Pan 2 FM - Country Dance
DYEAR=1996
DGENRE=Country
TTITLE0=Tim O'Brien - Senor
TTITLE1=Groove Boys - Macarena
TTITLE2=Country Connection - Callin' Baton Rouge
TTITLE3=Guy Brook - Standing Outside The Fire
TTITLE4=Shanaia T. - Any Man Of Mine
TTITLE5=Maddie Rock - You've Got A Friend
TTITLE6=Samantha Blue - Heads Carolina
TTITLE7=Amy Frame - Walking In Menphis
TTITLE8=Tim O'Brien - Forever Young
TTITLE9=Billy Ho - Yellow River
TTITLE10=Country Connection - Callin' Baton Rouge
TTITLE11=Guy Brook - Standing Outside The Fire
TTITLE12=Amy Frame - Walking In Menphis
TTITLE13=Don Strait - I Cross My Heart
TTITLE14=Shanaia T. - Any Man Of Mine
TTITLE15=Shanaia T. - You Win My Love
TTITLE16=New Wave Country - Boy's Don't Cry
TTITLE17=Willie Idol - Dancin'With Myseld
TTITLE18=Holly Paxman - You're not In Kansas Anymore
TTITLE19=J. J. Scott - Born To Be Wild
EXTD=
EXTT0=
EXTT1=
EXTT2=
EXTT3=
EXTT4=
EXTT5=
EXTT6=
EXTT7=
EXTT8=
EXTT9=
EXTT10=
EXTT11=
EXTT12=
EXTT13=
EXTT14=
EXTT15=
EXTT16=
EXTT17=
EXTT18=
EXTT19=
PLAYORDER=
